<svg width="28" height="40" viewBox="0 0 28 40" fill="none" xmlns="http://www.w3.org/2000/svg">
<path d="M13.351 26.9077C13.2191 25.4579 13.0909 24.0068 12.9554 22.5569C12.8658 21.6029 12.2741 20.9741 11.5481 20.4432C10.5619 19.7201 9.47892 19.1735 8.33785 18.7406C7.47752 18.4153 6.81926 17.8023 6.14285 17.2194C5.07801 16.3028 4.32295 15.1662 3.78569 13.8711C3.37065 12.8723 2.89148 11.8988 2.48974 10.8952C1.93434 9.51062 1.94644 8.07769 2.20175 6.62662C2.37116 5.66166 2.66883 4.75716 3.27143 3.976C4.24067 2.72083 5.43013 1.73531 6.89186 1.092C7.23067 0.943266 7.54891 0.748581 7.88772 0.596219C8.43103 0.351956 8.99611 0.179037 9.59629 0.146388C10.8366 0.0798809 12.066 -0.107549 13.3232 0.0835085C14.3106 0.233452 15.2 0.580499 16.0712 1.02428C17.7544 1.87921 19.0576 3.15252 20.1103 4.69912C20.4721 5.22996 20.5907 5.84304 20.6343 6.46579C20.679 7.10789 20.7141 7.75361 20.6911 8.39571C20.6706 8.97493 20.6076 9.56019 20.4903 10.1285C20.3547 10.7876 19.9046 11.2483 19.3891 11.6655C18.3933 12.4696 17.2474 12.5929 16.0506 12.4067C14.6748 12.1927 13.3075 11.9242 11.9365 11.6739C11.0447 11.5107 10.1662 11.4925 9.28773 11.7815C8.49153 12.0439 8.11279 12.8723 8.46007 13.6401C8.84244 14.4878 9.59508 14.8868 10.3804 15.2423C11.3666 15.6885 12.4157 15.5398 13.4466 15.5253C14.9543 15.5035 16.2091 14.8892 17.2824 13.859C17.7834 13.3777 18.2735 12.8795 18.8144 12.4466C19.1495 12.177 19.5561 11.9762 19.9578 11.8166C20.3136 11.6751 20.6706 11.9895 20.6996 12.3934C20.7347 12.8868 20.633 13.3523 20.437 13.8022C20.0062 14.7925 19.3335 15.5942 18.5082 16.2811C17.6902 16.9631 16.865 17.6378 16.0724 18.3476C15.0475 19.2642 14.3905 20.3936 14.1557 21.7685C14.0432 22.4275 13.8084 23.0648 13.6826 23.7214C13.5035 24.6574 13.3087 25.5969 13.3704 26.5607C13.3777 26.6804 13.3704 26.8013 13.3704 26.921C13.3631 26.9174 13.3571 26.9126 13.3498 26.9089L13.351 26.9077ZM7.62998 9.52271C7.66749 9.43806 7.69169 9.39816 7.70379 9.35463C7.93249 8.60612 9.10502 7.89509 9.88912 7.90477C10.9515 7.91807 11.8942 8.224 12.7242 8.84917C13.443 9.38969 14.2186 9.43564 15.01 9.16841C15.4444 9.02209 15.8715 8.68351 15.955 8.21796C16.0869 7.48154 16.0422 6.7294 15.5666 6.07763C15.1092 5.45004 14.5599 4.92161 13.8847 4.53829C13.2651 4.18761 12.6008 4.06185 11.8808 4.1066C11.0508 4.15859 10.2945 4.45122 9.53579 4.72935C9.22723 4.84301 8.9102 5.05221 8.7057 5.30615C7.98573 6.19372 7.48357 7.19616 7.40855 8.35944C7.38434 8.73671 7.3674 9.13697 7.62877 9.52392L7.62998 9.52271Z" fill="white"/>
<path d="M18.0372 30.013C16.924 29.8872 15.8265 29.7627 14.7641 29.643C14.7641 29.0105 14.7229 28.3721 14.7725 27.7408C14.8778 26.395 15.0992 25.0673 15.5143 23.7758C16.0915 21.9789 17.074 20.4214 18.2853 18.9909C19.5001 17.5568 20.7513 16.148 21.5366 14.4067C22.178 12.9847 22.57 11.5034 22.7092 9.94833C22.8786 8.05469 22.7055 6.19974 22.1792 4.37502C22.1707 4.34479 22.1792 4.31093 22.1792 4.18759C22.7612 4.58301 23.3154 4.92522 23.8321 5.3158C25.3749 6.4827 26.5728 7.91321 27.1427 9.7996C27.6582 11.5046 27.5626 13.2048 27.0629 14.8916C26.3865 17.1747 25.2139 19.1795 23.5659 20.8954C23.1641 21.3138 22.6692 21.6403 22.2324 22.0261C20.1899 23.8314 18.7935 26.0286 18.2102 28.7119C18.1618 28.9368 18.1425 29.1677 18.1134 29.3951C18.0844 29.6127 18.0602 29.8304 18.0372 30.0142V30.013Z" fill="white"/>
<path d="M12.0236 29.967C10.9007 29.9295 9.81285 29.892 8.75043 29.857C8.59313 29.1193 8.48785 28.3696 8.26884 27.6538C7.5767 25.3925 6.35819 23.4457 4.62542 21.8301C2.5986 19.9413 1.06065 17.7478 0.374556 15.0258C-0.100988 13.1419 -0.134869 11.2506 0.337046 9.35821C0.351566 9.29775 0.379397 9.23971 0.390287 9.2131C0.454419 9.97854 0.489511 10.7718 0.591154 11.5566C0.851312 13.5663 1.74432 15.2616 3.19515 16.6752C4.41124 17.8603 5.85602 18.7249 7.26451 19.6439C8.06313 20.1663 8.88475 20.6705 9.61077 21.2848C11.1221 22.5617 11.9631 24.2292 12.245 26.187C12.4168 27.3769 12.3515 28.551 12.101 29.7215C12.0829 29.8062 12.0502 29.8872 12.0236 29.9682V29.967Z" fill="white"/>
<path d="M13.1673 32.2005C12.5067 32.2005 11.8387 32.1848 11.1817 32.1533C10.5343 32.1231 9.88573 31.9974 9.25772 31.8776C9.07137 31.8414 8.88503 31.8063 8.69868 31.7724C8.5559 31.747 8.42884 31.6733 8.30663 31.6019C8.25581 31.5717 8.20378 31.5427 8.15175 31.5161L8.09245 31.4871L8.08398 31.2101L8.1457 31.1787C8.19652 31.1521 8.24613 31.1219 8.29574 31.0916C8.41553 31.0179 8.54017 30.9417 8.68174 30.9151C8.8693 30.8812 9.05564 30.8462 9.2432 30.8099C9.88089 30.6878 10.5404 30.5608 11.1974 30.5294C11.8496 30.4979 12.5127 30.481 13.1673 30.481C13.822 30.481 14.4851 30.4967 15.1373 30.5294C15.7943 30.5608 16.4538 30.6878 17.0927 30.8099C17.2791 30.8462 17.4666 30.8812 17.653 30.9151C17.7957 30.9405 17.9192 31.0167 18.039 31.0904C18.0886 31.1207 18.1382 31.1521 18.189 31.1775L18.2447 31.2065L18.2592 31.4665L18.1951 31.4992C18.1418 31.5258 18.0898 31.5584 18.0377 31.5898C17.9131 31.666 17.7836 31.7446 17.636 31.7712C17.4557 31.8039 17.2766 31.8389 17.0963 31.8728C16.4623 31.9949 15.8064 32.1219 15.153 32.1521C14.496 32.1836 13.8268 32.1993 13.1673 32.1993V32.2005Z" fill="white"/>
<path d="M13.1666 30.5898C13.8225 30.5898 14.4771 30.6055 15.1305 30.6382C15.9691 30.6793 16.8016 30.8728 17.6316 31.0227C17.8095 31.0542 17.9693 31.1884 18.1374 31.2754C18.1399 31.3178 18.1423 31.3601 18.1447 31.4012C17.9693 31.4907 17.8023 31.6285 17.6159 31.6624C16.7967 31.8111 15.9751 32.0034 15.1474 32.0421C14.488 32.0735 13.8273 32.0893 13.1666 32.0893C12.5059 32.0893 11.8453 32.0735 11.1858 32.0421C10.3581 32.0022 9.5365 31.8099 8.71731 31.6624C8.5358 31.6297 8.37245 31.5004 8.20062 31.4157C8.19941 31.3686 8.1982 31.3214 8.19578 31.2742C8.36398 31.1872 8.5237 31.053 8.70158 31.0215C9.53166 30.8728 10.3642 30.6781 11.2027 30.637C11.8561 30.6055 12.512 30.5886 13.1666 30.5886M13.1666 30.3685C12.5096 30.3685 11.8453 30.3842 11.1918 30.4169C10.5263 30.4495 9.862 30.5765 9.22068 30.6999C9.03434 30.7349 8.8492 30.7712 8.66285 30.8039C8.50071 30.8329 8.36156 30.9187 8.23813 30.9937C8.19094 31.0227 8.14375 31.0517 8.09535 31.0771L7.97192 31.1412L7.97676 31.2791L7.98039 31.4097V31.4206L7.98523 31.5524L8.10382 31.6104C8.15343 31.6346 8.20183 31.6636 8.25144 31.6926C8.37608 31.7652 8.51644 31.8474 8.6798 31.8764C8.86614 31.9103 9.05249 31.9454 9.23883 31.9816C9.87047 32.1026 10.5227 32.2283 11.1773 32.2598C11.8368 32.2912 12.5071 32.3069 13.169 32.3069C13.8309 32.3069 14.5013 32.2912 15.1608 32.2598C15.8226 32.2283 16.4833 32.1001 17.1222 31.978C17.3013 31.9429 17.4792 31.9091 17.6583 31.8764C17.8253 31.8462 17.9705 31.7591 18.0975 31.6817C18.1471 31.6515 18.1967 31.6213 18.2476 31.5947L18.3746 31.5294L18.3661 31.3867L18.3589 31.2634L18.3516 31.1388L18.2403 31.0783C18.1919 31.053 18.1447 31.0239 18.0975 30.9949C17.9753 30.9199 17.8361 30.8341 17.6728 30.8051C17.4864 30.7712 17.3013 30.7361 17.115 30.7011C16.4724 30.5777 15.8093 30.4508 15.1438 30.4181C14.4904 30.3867 13.8249 30.3697 13.169 30.3697L13.1666 30.3685Z" fill="white"/>
<path d="M18.1411 33.4581C17.9632 33.5463 17.7938 33.6818 17.6063 33.7156C16.775 33.8631 15.9425 34.053 15.1039 34.0941C13.8189 34.157 12.5265 34.1594 11.2415 34.0941C10.3811 34.0506 9.52685 33.8571 8.67499 33.7011C8.51284 33.6721 8.3749 33.5076 8.22485 33.4061C8.3749 33.2936 8.51284 33.1122 8.67862 33.082C9.52927 32.9236 10.3848 32.7325 11.2451 32.689C12.5181 32.6237 13.8007 32.6249 15.0737 32.689C15.9231 32.7313 16.7665 32.92 17.6087 33.0687C17.795 33.1013 17.9644 33.238 18.1411 33.3275C18.1411 33.3722 18.1411 33.4157 18.1411 33.4605V33.4581Z" fill="white"/>
<path d="M13.1448 36.255C11.7521 36.0918 10.3593 35.9334 8.96779 35.7592C8.77782 35.735 8.58905 35.6468 8.41601 35.5573C8.18974 35.4412 8.18611 35.2816 8.42327 35.1909C8.78871 35.0506 9.16624 34.9212 9.55103 34.8608C11.3939 34.5718 13.2525 34.5258 15.1087 34.6673C15.9449 34.7314 16.775 34.9067 17.6014 35.0603C17.772 35.0917 17.9184 35.2574 18.0757 35.3602C17.916 35.4726 17.7696 35.648 17.5929 35.6867C16.9528 35.8257 16.3079 35.9527 15.6569 36.0192C14.8268 36.1051 13.9894 36.1292 13.1557 36.18C13.1521 36.2042 13.1473 36.2284 13.1436 36.2526L13.1448 36.255Z" fill="white"/>
<path d="M13.1677 38.1885C11.7592 38.1788 10.3567 38.1426 8.9773 37.8173C8.89259 37.7967 8.79942 37.7871 8.72682 37.7447C8.56467 37.6504 8.41342 37.538 8.25732 37.4328C8.40858 37.3239 8.54531 37.1776 8.71351 37.1147C8.9773 37.0156 9.25923 36.9515 9.53875 36.9092C11.3937 36.6274 13.262 36.579 15.1291 36.7193C15.9544 36.781 16.7736 36.9539 17.5879 37.1099C17.7646 37.1438 17.9134 37.3203 18.0756 37.4316C17.9086 37.538 17.7549 37.7036 17.5734 37.7423C16.9333 37.8778 16.2883 38.0084 15.6386 38.0688C14.8181 38.145 13.9917 38.1522 13.1677 38.1885Z" fill="white"/>
<path d="M10.4509 38.752H15.6722C15.5137 39.4377 14.8651 39.9722 14.1863 39.9988C13.3357 40.0314 12.5007 39.9371 11.6767 39.7339C11.0789 39.5876 10.6929 39.2756 10.4509 38.752Z" fill="white"/>
</svg>
