<svg width="107" height="41" viewBox="0 0 107 41" fill="none" xmlns="http://www.w3.org/2000/svg">
<path d="M13.351 26.9077C13.2191 25.4579 13.0909 24.0068 12.9554 22.5569C12.8658 21.6029 12.2741 20.9741 11.5481 20.4432C10.5619 19.7201 9.47892 19.1735 8.33785 18.7406C7.47752 18.4153 6.81926 17.8023 6.14285 17.2194C5.07801 16.3028 4.32295 15.1662 3.78569 13.8711C3.37065 12.8723 2.89148 11.8988 2.48974 10.8952C1.93434 9.51062 1.94644 8.07769 2.20175 6.62662C2.37116 5.66166 2.66883 4.75716 3.27143 3.976C4.24067 2.72083 5.43013 1.73531 6.89186 1.092C7.23067 0.943266 7.54891 0.748581 7.88772 0.596219C8.43103 0.351956 8.99611 0.179037 9.59629 0.146388C10.8366 0.0798809 12.066 -0.107549 13.3232 0.0835085C14.3106 0.233452 15.2 0.580499 16.0712 1.02428C17.7544 1.87921 19.0576 3.15252 20.1103 4.69912C20.4721 5.22996 20.5907 5.84304 20.6343 6.46579C20.679 7.10789 20.7141 7.75361 20.6911 8.39571C20.6706 8.97493 20.6076 9.56019 20.4903 10.1285C20.3547 10.7876 19.9046 11.2483 19.3891 11.6655C18.3933 12.4696 17.2474 12.5929 16.0506 12.4067C14.6748 12.1927 13.3075 11.9242 11.9365 11.6739C11.0447 11.5107 10.1662 11.4925 9.28773 11.7815C8.49153 12.0439 8.11279 12.8723 8.46007 13.6401C8.84244 14.4878 9.59508 14.8868 10.3804 15.2423C11.3666 15.6885 12.4157 15.5398 13.4466 15.5253C14.9543 15.5035 16.2091 14.8892 17.2824 13.859C17.7834 13.3777 18.2735 12.8795 18.8144 12.4466C19.1495 12.177 19.5561 11.9762 19.9578 11.8166C20.3136 11.6751 20.6706 11.9895 20.6996 12.3934C20.7347 12.8868 20.633 13.3523 20.437 13.8022C20.0062 14.7925 19.3335 15.5942 18.5082 16.2811C17.6902 16.9631 16.865 17.6378 16.0724 18.3476C15.0475 19.2642 14.3905 20.3936 14.1557 21.7685C14.0432 22.4275 13.8084 23.0648 13.6826 23.7214C13.5035 24.6574 13.3087 25.5969 13.3704 26.5607C13.3777 26.6804 13.3704 26.8013 13.3704 26.921C13.3631 26.9174 13.3571 26.9126 13.3498 26.9089L13.351 26.9077ZM7.62998 9.52271C7.66749 9.43806 7.69169 9.39816 7.70379 9.35463C7.93249 8.60612 9.10502 7.89509 9.88912 7.90477C10.9515 7.91807 11.8942 8.224 12.7242 8.84917C13.443 9.38969 14.2186 9.43564 15.01 9.16841C15.4444 9.02209 15.8715 8.68351 15.955 8.21796C16.0869 7.48154 16.0422 6.7294 15.5666 6.07763C15.1092 5.45004 14.5599 4.92161 13.8847 4.53829C13.2651 4.18761 12.6008 4.06185 11.8808 4.1066C11.0508 4.15859 10.2945 4.45122 9.53579 4.72935C9.22723 4.84301 8.9102 5.05221 8.7057 5.30615C7.98573 6.19372 7.48357 7.19616 7.40855 8.35944C7.38434 8.73671 7.3674 9.13697 7.62877 9.52392L7.62998 9.52271Z" fill="white"/>
<path d="M18.0372 30.013C16.924 29.8872 15.8265 29.7627 14.7641 29.643C14.7641 29.0105 14.7229 28.3721 14.7725 27.7408C14.8778 26.395 15.0992 25.0673 15.5143 23.7758C16.0915 21.9789 17.074 20.4214 18.2853 18.9909C19.5001 17.5568 20.7513 16.148 21.5366 14.4067C22.178 12.9847 22.57 11.5034 22.7092 9.94833C22.8786 8.05469 22.7055 6.19974 22.1792 4.37502C22.1707 4.34479 22.1792 4.31093 22.1792 4.18759C22.7612 4.58301 23.3154 4.92522 23.8321 5.3158C25.3749 6.4827 26.5728 7.91321 27.1427 9.7996C27.6582 11.5046 27.5626 13.2048 27.0629 14.8916C26.3865 17.1747 25.2139 19.1795 23.5659 20.8954C23.1641 21.3138 22.6692 21.6403 22.2324 22.0261C20.1899 23.8314 18.7935 26.0286 18.2102 28.7119C18.1618 28.9368 18.1425 29.1677 18.1134 29.3951C18.0844 29.6127 18.0602 29.8304 18.0372 30.0142V30.013Z" fill="white"/>
<path d="M12.0236 29.967C10.9007 29.9295 9.81285 29.892 8.75043 29.857C8.59313 29.1193 8.48785 28.3696 8.26884 27.6538C7.5767 25.3925 6.35819 23.4457 4.62542 21.8301C2.5986 19.9413 1.06065 17.7478 0.374556 15.0258C-0.100988 13.1419 -0.134869 11.2506 0.337046 9.35821C0.351566 9.29775 0.379397 9.23971 0.390287 9.2131C0.454419 9.97854 0.489511 10.7718 0.591154 11.5566C0.851312 13.5663 1.74432 15.2616 3.19515 16.6752C4.41124 17.8603 5.85602 18.7249 7.26451 19.6439C8.06313 20.1663 8.88475 20.6705 9.61077 21.2848C11.1221 22.5617 11.9631 24.2292 12.245 26.187C12.4168 27.3769 12.3515 28.551 12.101 29.7215C12.0829 29.8062 12.0502 29.8872 12.0236 29.9682V29.967Z" fill="white"/>
<path d="M13.1673 32.2005C12.5067 32.2005 11.8387 32.1848 11.1817 32.1533C10.5343 32.1231 9.88573 31.9974 9.25772 31.8776C9.07137 31.8414 8.88503 31.8063 8.69868 31.7724C8.5559 31.747 8.42884 31.6733 8.30663 31.6019C8.25581 31.5717 8.20378 31.5427 8.15175 31.5161L8.09245 31.4871L8.08398 31.2101L8.1457 31.1787C8.19652 31.1521 8.24613 31.1219 8.29574 31.0916C8.41553 31.0179 8.54017 30.9417 8.68174 30.9151C8.8693 30.8812 9.05564 30.8462 9.2432 30.8099C9.88089 30.6878 10.5404 30.5608 11.1974 30.5294C11.8496 30.4979 12.5127 30.481 13.1673 30.481C13.822 30.481 14.4851 30.4967 15.1373 30.5294C15.7943 30.5608 16.4538 30.6878 17.0927 30.8099C17.2791 30.8462 17.4666 30.8812 17.653 30.9151C17.7957 30.9405 17.9192 31.0167 18.039 31.0904C18.0886 31.1207 18.1382 31.1521 18.189 31.1775L18.2447 31.2065L18.2592 31.4665L18.1951 31.4992C18.1418 31.5258 18.0898 31.5584 18.0377 31.5898C17.9131 31.666 17.7836 31.7446 17.636 31.7712C17.4557 31.8039 17.2766 31.8389 17.0963 31.8728C16.4623 31.9949 15.8064 32.1219 15.153 32.1521C14.496 32.1836 13.8268 32.1993 13.1673 32.1993V32.2005Z" fill="white"/>
<path d="M13.1666 30.5898C13.8225 30.5898 14.4771 30.6055 15.1305 30.6382C15.9691 30.6793 16.8016 30.8728 17.6316 31.0227C17.8095 31.0542 17.9693 31.1884 18.1374 31.2754C18.1399 31.3178 18.1423 31.3601 18.1447 31.4012C17.9693 31.4907 17.8023 31.6285 17.6159 31.6624C16.7967 31.8111 15.9751 32.0034 15.1474 32.0421C14.488 32.0735 13.8273 32.0893 13.1666 32.0893C12.5059 32.0893 11.8453 32.0735 11.1858 32.0421C10.3581 32.0022 9.5365 31.8099 8.71731 31.6624C8.5358 31.6297 8.37245 31.5004 8.20062 31.4157C8.19941 31.3686 8.1982 31.3214 8.19578 31.2742C8.36398 31.1872 8.5237 31.053 8.70158 31.0215C9.53166 30.8728 10.3642 30.6781 11.2027 30.637C11.8561 30.6055 12.512 30.5886 13.1666 30.5886M13.1666 30.3685C12.5096 30.3685 11.8453 30.3842 11.1918 30.4169C10.5263 30.4495 9.862 30.5765 9.22068 30.6999C9.03434 30.7349 8.8492 30.7712 8.66285 30.8039C8.50071 30.8329 8.36156 30.9187 8.23813 30.9937C8.19094 31.0227 8.14375 31.0517 8.09535 31.0771L7.97192 31.1412L7.97676 31.2791L7.98039 31.4097V31.4206L7.98523 31.5524L8.10382 31.6104C8.15343 31.6346 8.20183 31.6636 8.25144 31.6926C8.37608 31.7652 8.51644 31.8474 8.6798 31.8764C8.86614 31.9103 9.05249 31.9454 9.23883 31.9816C9.87047 32.1026 10.5227 32.2283 11.1773 32.2598C11.8368 32.2912 12.5071 32.3069 13.169 32.3069C13.8309 32.3069 14.5013 32.2912 15.1608 32.2598C15.8226 32.2283 16.4833 32.1001 17.1222 31.978C17.3013 31.9429 17.4792 31.9091 17.6583 31.8764C17.8253 31.8462 17.9705 31.7591 18.0975 31.6817C18.1471 31.6515 18.1967 31.6213 18.2476 31.5947L18.3746 31.5294L18.3661 31.3867L18.3589 31.2634L18.3516 31.1388L18.2403 31.0783C18.1919 31.053 18.1447 31.0239 18.0975 30.9949C17.9753 30.9199 17.8361 30.8341 17.6728 30.8051C17.4864 30.7712 17.3013 30.7361 17.115 30.7011C16.4724 30.5777 15.8093 30.4508 15.1438 30.4181C14.4904 30.3867 13.8249 30.3697 13.169 30.3697L13.1666 30.3685Z" fill="white"/>
<path d="M18.1411 33.4581C17.9632 33.5463 17.7938 33.6818 17.6063 33.7156C16.775 33.8631 15.9425 34.053 15.1039 34.0941C13.8189 34.157 12.5265 34.1594 11.2415 34.0941C10.3811 34.0506 9.52685 33.8571 8.67499 33.7011C8.51284 33.6721 8.3749 33.5076 8.22485 33.4061C8.3749 33.2936 8.51284 33.1122 8.67862 33.082C9.52927 32.9236 10.3848 32.7325 11.2451 32.689C12.5181 32.6237 13.8007 32.6249 15.0737 32.689C15.9231 32.7313 16.7665 32.92 17.6087 33.0687C17.795 33.1013 17.9644 33.238 18.1411 33.3275C18.1411 33.3722 18.1411 33.4157 18.1411 33.4605V33.4581Z" fill="white"/>
<path d="M13.1448 36.255C11.7521 36.0918 10.3593 35.9334 8.96779 35.7592C8.77782 35.735 8.58905 35.6468 8.41601 35.5573C8.18974 35.4412 8.18611 35.2816 8.42327 35.1909C8.78871 35.0506 9.16624 34.9212 9.55103 34.8608C11.3939 34.5718 13.2525 34.5258 15.1087 34.6673C15.9449 34.7314 16.775 34.9067 17.6014 35.0603C17.772 35.0917 17.9184 35.2574 18.0757 35.3602C17.916 35.4726 17.7696 35.648 17.5929 35.6867C16.9528 35.8257 16.3079 35.9527 15.6569 36.0192C14.8268 36.1051 13.9894 36.1292 13.1557 36.18C13.1521 36.2042 13.1473 36.2284 13.1436 36.2526L13.1448 36.255Z" fill="white"/>
<path d="M13.1677 38.1885C11.7592 38.1788 10.3567 38.1426 8.9773 37.8173C8.89259 37.7967 8.79942 37.7871 8.72682 37.7447C8.56467 37.6504 8.41342 37.538 8.25732 37.4328C8.40858 37.3239 8.54531 37.1776 8.71351 37.1147C8.9773 37.0156 9.25923 36.9515 9.53875 36.9092C11.3937 36.6274 13.262 36.579 15.1291 36.7193C15.9544 36.781 16.7736 36.9539 17.5879 37.1099C17.7646 37.1438 17.9134 37.3203 18.0756 37.4316C17.9086 37.538 17.7549 37.7036 17.5734 37.7423C16.9333 37.8778 16.2883 38.0084 15.6386 38.0688C14.8181 38.145 13.9917 38.1522 13.1677 38.1885Z" fill="white"/>
<path d="M10.4509 38.752H15.6722C15.5137 39.4377 14.8651 39.9722 14.1863 39.9988C13.3357 40.0314 12.5007 39.9371 11.6767 39.7339C11.0789 39.5876 10.6929 39.2756 10.4509 38.752Z" fill="white"/>
<path d="M45.8012 29.7917C45.8563 29.7663 45.9136 29.7685 45.9688 29.798C46.026 29.8276 46.0621 29.8741 46.0812 29.9375C46.1003 30.0009 46.0982 30.0622 46.0748 30.1213C45.326 31.9195 44.5815 33.4493 43.8412 34.7087C43.1009 35.968 42.3882 36.9231 41.7031 37.5697C41.0179 38.2162 40.3837 38.5395 39.8004 38.5395C39.6286 38.5395 39.4589 38.51 39.2956 38.4508C38.7653 38.2649 38.3368 37.7979 38.0101 37.0456C37.6835 36.2934 37.4926 35.3447 37.431 34.1973C37.3716 33.05 37.4416 31.7462 37.6453 30.284C37.8616 28.7542 38.2328 27.1758 38.7568 25.5446C39.3698 23.6281 40.0358 22.187 40.7549 21.2214C41.3382 20.4395 41.8388 20.1627 42.2588 20.3888C42.5516 20.5494 42.7467 20.9277 42.8485 21.5299C42.9503 22.1321 42.9652 22.8843 42.8994 23.7929C42.8315 24.6994 42.7319 25.6101 42.5961 26.5208C42.4625 27.4336 42.2885 28.4183 42.0807 29.4769C42.0658 29.536 42.0319 29.5846 41.9788 29.6227C41.9258 29.6607 41.8728 29.6713 41.8155 29.6544C41.7604 29.6375 41.7137 29.6015 41.6819 29.5466C41.6479 29.4917 41.6394 29.4304 41.6543 29.3628C41.8791 28.2365 42.0594 27.2054 42.1931 26.2693C42.3267 25.3333 42.4158 24.5493 42.4561 23.9197C42.4964 23.29 42.507 22.7469 42.4837 22.2948C42.4603 21.8405 42.4137 21.4982 42.3437 21.2678C42.2716 21.0375 42.1803 20.8917 42.0679 20.8326C41.964 20.7734 41.824 20.8072 41.6522 20.934C41.4804 21.0608 41.2937 21.2573 41.0901 21.5256C40.424 22.4258 39.811 23.7337 39.2489 25.4516C38.6868 27.1695 38.2944 28.807 38.0695 30.3601C37.7704 32.4266 37.7598 34.1783 38.0356 35.6151C38.1628 36.2702 38.3453 36.8026 38.585 37.2105C38.8247 37.6183 39.1046 37.8761 39.4271 37.9859C40.1377 38.2374 40.9946 37.7768 41.9979 36.5998C43.1794 35.2137 44.4076 32.9866 45.6803 29.9206C45.7036 29.8614 45.7418 29.8192 45.7991 29.7938L45.8012 29.7917Z" fill="white"/>
<path d="M51.0639 29.8741C51.1212 29.853 51.1742 29.8572 51.2273 29.8868C51.2803 29.9163 51.3163 29.9628 51.3397 30.0262C51.3609 30.0896 51.3588 30.1509 51.3291 30.21C51.1276 30.6982 50.8985 31.1968 50.6439 31.7103C50.3894 32.2216 50.1115 32.7414 49.8082 33.2676C49.5049 33.7916 49.2037 34.2205 48.9046 34.5523C48.6055 34.884 48.3509 35.0509 48.141 35.0509C48.0879 35.0509 48.0391 35.0383 47.9946 35.0129C47.687 34.8777 47.5916 34.3579 47.7019 33.4493C47.8058 32.602 48.0837 31.3997 48.5334 29.8445C48.5249 29.8445 48.5206 29.8466 48.5164 29.8508C48.5122 29.8551 48.5079 29.8572 48.4994 29.8572C48.334 29.984 48.1982 30.079 48.09 30.1467C47.9819 30.2143 47.8355 30.2903 47.6531 30.3727C47.4685 30.4573 47.2946 30.4953 47.1313 30.4869C46.9658 30.4784 46.8131 30.4192 46.671 30.3115C46.3867 30.0854 46.2404 29.7705 46.234 29.367C46.2255 28.9634 46.3613 28.5218 46.637 28.0442C46.8089 27.7421 47.0167 27.4779 47.2607 27.2497C47.5046 27.0236 47.7125 26.9729 47.8843 27.0976C47.9882 27.1652 48.0497 27.273 48.0688 27.4251C48.0879 27.5772 48.0222 27.8688 47.8716 28.302C47.721 28.7352 47.4707 29.2993 47.1185 29.9966C47.3498 30.0304 47.7316 29.8508 48.264 29.4557C48.3616 29.3796 48.4337 29.3268 48.4825 29.2972C48.5312 29.2676 48.5864 29.236 48.65 29.2021C48.7137 29.1683 48.7667 29.1557 48.8134 29.1641C48.8579 29.1726 48.9025 29.1937 48.9491 29.2275C49.0615 29.3289 49.0806 29.5043 49.0043 29.7579C48.2555 32.3632 47.9607 33.9416 48.1176 34.4973C48.1325 34.5311 48.1431 34.5565 48.1516 34.5734C48.2109 34.5819 48.3022 34.5269 48.4273 34.4107C48.5503 34.2924 48.7031 34.1085 48.8876 33.855C49.0721 33.6035 49.2694 33.3014 49.4815 32.9464C49.6958 32.5935 49.9312 32.1604 50.1879 31.649C50.4467 31.1377 50.6948 30.5904 50.9345 30.0114C50.9642 29.9438 51.0067 29.8994 51.0639 29.8783V29.8741ZM46.7028 29.0225C46.6349 29.3162 46.6498 29.5508 46.7473 29.7283C47.2925 28.6612 47.5852 27.9386 47.6234 27.5603C47.5343 27.6195 47.4304 27.7167 47.3137 27.8498C47.197 27.9851 47.0782 28.1583 46.9552 28.3738C46.8322 28.5873 46.7473 28.8049 46.7028 29.0225Z" fill="white"/>
<path d="M55.3125 29.8868C55.3719 29.8741 55.427 29.8868 55.4758 29.9248C55.5246 29.9629 55.5522 30.0157 55.5606 30.0833C55.5691 30.1509 55.5564 30.2101 55.5267 30.2587C54.6804 31.5856 53.9104 32.528 53.2146 33.0817C52.9389 33.2993 52.6652 33.4092 52.3959 33.4092C52.1859 33.4092 52.0034 33.3458 51.8465 33.219C51.7574 33.1429 51.6768 33.0436 51.6047 32.9168C51.5325 32.7901 51.471 32.6147 51.4201 32.3886C51.3671 32.1625 51.3586 31.8625 51.3925 31.4948C51.4265 31.125 51.5092 30.7045 51.645 30.2333V30.2206C51.855 29.4557 52.1095 28.8514 52.4086 28.4056C52.7077 27.9597 52.9771 27.7336 53.2168 27.7252C53.3886 27.7167 53.501 27.8013 53.554 27.9766C53.6367 28.2196 53.5392 28.5641 53.2613 29.0099C52.9834 29.4557 52.5762 29.9333 52.0374 30.4467C51.9483 30.7743 51.8847 31.0764 51.8465 31.3553C51.8083 31.6321 51.7956 31.854 51.8062 32.0167C51.8168 32.1815 51.8444 32.3231 51.8847 32.4456C51.925 32.5682 51.9631 32.6527 51.9971 32.7034C52.031 32.7541 52.065 32.7964 52.1031 32.8302C52.328 33.014 52.6165 32.9633 52.9686 32.6781C53.6261 32.1562 54.3601 31.2581 55.1682 29.9798C55.2064 29.9291 55.2552 29.8974 55.3146 29.8847L55.3125 29.8868ZM53.134 28.2534C52.8731 28.4394 52.6143 28.8387 52.3598 29.4515C52.7946 28.9634 53.0513 28.564 53.134 28.2534Z" fill="white"/>
<path d="M60.448 29.9248C60.5053 29.9037 60.5583 29.9079 60.6113 29.9375C60.6643 29.9671 60.6983 30.0136 60.7174 30.0769C60.7365 30.1403 60.7343 30.2016 60.711 30.2608C59.9092 32.1181 59.1965 33.0457 58.5665 33.0457C58.5283 33.0457 58.488 33.0415 58.4435 33.033C57.9429 32.9232 57.6311 32.1688 57.5123 30.7637C57.1453 31.3173 56.8208 31.7716 56.5365 32.1245C56.282 32.4266 56.0656 32.5323 55.8853 32.4393C55.705 32.3632 55.6202 32.1456 55.6266 31.7843C55.6266 31.4821 55.6859 31.1208 55.8069 30.7003C55.9256 30.2798 56.1017 29.872 56.335 29.4769C56.5662 29.0817 56.8187 28.8345 57.088 28.7331C57.4847 28.5725 57.8517 28.7204 58.1868 29.1747C58.225 29.2254 58.242 29.2846 58.2377 29.3501C58.2335 29.4156 58.2101 29.4726 58.1656 29.5128C58.1211 29.555 58.068 29.5741 58.0086 29.5698C57.9492 29.5656 57.9004 29.5381 57.8623 29.4874C57.5992 29.1346 57.3341 29.0669 57.0647 29.2867C56.7571 29.5297 56.5026 29.9692 56.2968 30.6031C56.0911 31.237 56.0105 31.6892 56.055 31.9575C56.0996 31.9153 56.1526 31.8603 56.212 31.7927C56.5111 31.4314 56.878 30.9137 57.3108 30.2418C57.4083 30.0896 57.4762 29.9861 57.5123 29.9269C57.5717 29.8424 57.6502 29.8149 57.7477 29.8445C57.8453 29.8741 57.8983 29.9481 57.9047 30.0643C57.9195 30.4763 57.9492 30.8419 57.9938 31.1609C58.0383 31.48 58.0829 31.7209 58.1274 31.8857C58.172 32.0484 58.225 32.1857 58.2844 32.2956C58.3438 32.4055 58.3904 32.4752 58.4244 32.5027C58.4583 32.5323 58.4944 32.5471 58.5304 32.5471C58.6344 32.5724 58.768 32.5154 58.9292 32.378C59.0904 32.2385 59.2962 31.9702 59.5465 31.5708C59.7968 31.1715 60.0534 30.6665 60.3143 30.0516C60.344 29.984 60.3865 29.9396 60.4437 29.9185L60.448 29.9248Z" fill="white"/>
<path d="M70.4534 25.3058C70.4915 25.3565 70.5064 25.4156 70.4979 25.4811C70.4894 25.5488 70.4597 25.6037 70.4088 25.6439C70.3197 25.7115 70.2328 25.7072 70.15 25.6312C69.7916 25.4875 67.2695 25.4748 62.5859 25.5931C62.1002 27.8879 61.606 30.3749 61.1054 33.0542C60.5072 36.2892 60.1445 38.512 60.0172 39.7228C60.032 39.7228 60.0469 39.727 60.0617 39.7355C60.1211 39.7524 60.1636 39.7925 60.1848 39.8559C60.2081 39.9193 60.2081 39.9806 60.1848 40.0397C60.1466 40.175 60.1169 40.2722 60.0893 40.3356C60.0617 40.399 60.0236 40.4623 59.9705 40.5257C59.9175 40.5891 59.8624 40.6208 59.803 40.6208C59.7796 40.6208 59.7542 40.6166 59.7245 40.6081C59.6269 40.5743 59.5696 40.4856 59.5505 40.344C59.5314 40.2003 59.5421 40.0081 59.5781 39.7651C59.6078 39.4122 59.6757 38.903 59.7796 38.2395C59.9663 36.9801 60.2484 35.3404 60.6217 33.3246C61.1223 30.601 61.6272 28.0315 62.1363 25.61C61.6272 25.6185 60.9951 25.6354 60.2399 25.6608C59.0436 25.6946 58.3393 25.7115 58.1294 25.7115C58.07 25.7115 58.0191 25.6882 57.9788 25.6417C57.9384 25.5953 57.9172 25.5382 57.9172 25.4727C57.9172 25.4304 57.9257 25.3903 57.9448 25.3523C57.9639 25.3142 57.9894 25.2846 58.0233 25.2635C58.0572 25.2424 58.0933 25.2318 58.1294 25.2318C58.3393 25.2318 59.0393 25.2107 60.2272 25.1684C60.9675 25.1515 61.642 25.1346 62.2465 25.1177C62.4862 24.0084 62.6984 23.0681 62.8871 22.2947C62.902 22.2271 62.9359 22.1764 62.989 22.1426C63.042 22.1088 63.095 22.1003 63.1523 22.1172C63.2096 22.1342 63.252 22.1722 63.2817 22.2313C63.3114 22.2905 63.3199 22.3539 63.305 22.4215C63.1247 23.1695 62.919 24.0633 62.6878 25.105C64.932 25.0374 66.6268 25.0121 67.7722 25.029C68.9176 25.0459 69.6367 25.0733 69.9337 25.1114C70.2285 25.1494 70.4025 25.2149 70.4555 25.3079L70.4534 25.3058Z" fill="white"/>
<path d="M66.4971 29.8424C66.5522 29.8255 66.6074 29.834 66.6604 29.8678C66.7134 29.9016 66.7453 29.9523 66.7559 30.0178C66.7665 30.0854 66.7559 30.1488 66.7283 30.208C66.5183 30.5777 66.2659 30.9623 65.971 31.3617C65.6762 31.761 65.3432 32.1202 64.972 32.4393C64.6008 32.7584 64.2889 32.9189 64.0344 32.9189C63.9453 32.9189 63.8668 32.902 63.799 32.8682C63.2984 32.6252 63.2453 31.6364 63.642 29.9058C63.6568 29.8382 63.6908 29.7896 63.7438 29.7558C63.7968 29.722 63.8499 29.7135 63.9071 29.7304C63.9623 29.7473 64.0068 29.7854 64.0365 29.8445C64.0662 29.9037 64.0747 29.9629 64.0599 30.0199C63.9708 30.4235 63.905 30.7785 63.8626 31.0849C63.8202 31.3913 63.8032 31.6258 63.8074 31.7843C63.8117 31.9427 63.8265 32.0759 63.852 32.1815C63.8774 32.2872 63.9008 32.3506 63.9199 32.3696C63.939 32.3907 63.9559 32.4055 63.9708 32.4139C64.1659 32.5069 64.518 32.2872 65.0314 31.7589C65.5447 31.2307 65.988 30.6242 66.3613 29.9438C66.3995 29.8931 66.4462 29.8593 66.5013 29.8424H66.4971ZM64.0111 28.8599C63.7947 28.843 63.7268 28.7415 63.8096 28.5577C63.8838 28.4056 63.9814 28.3063 64.1023 28.2555C64.2889 28.1879 64.4014 28.2429 64.4396 28.4204C64.4777 28.5894 64.4205 28.7141 64.272 28.7986C64.1977 28.8409 64.1108 28.862 64.0132 28.862L64.0111 28.8599Z" fill="white"/>
<path d="M72.4558 29.9375C72.511 29.9332 72.564 29.9523 72.6128 29.9945C72.6616 30.0368 72.687 30.0917 72.6913 30.1572C72.6955 30.2248 72.6786 30.284 72.6404 30.3347C72.3561 30.7045 72.0295 30.9707 71.6646 31.1355C71.2977 31.3003 70.9498 31.332 70.621 31.2306C70.2392 31.1207 69.9444 30.8566 69.7344 30.4361C69.5477 31.1672 69.2635 31.8856 68.8817 32.5914C68.6271 33.071 68.3683 33.4683 68.1074 33.7831C67.8444 34.098 67.609 34.2945 67.4011 34.3684C67.3268 34.3938 67.2547 34.4065 67.1868 34.4065C67.0532 34.4065 66.9408 34.3557 66.8496 34.2543C66.4169 33.7578 66.6332 32.0526 67.5008 29.1366C67.5156 29.0775 67.5517 29.0331 67.6068 29.0035C67.6641 28.9739 67.7193 28.9697 67.7744 28.9908C67.8296 29.012 67.872 29.0521 67.8974 29.1113C67.9229 29.1704 67.925 29.2338 67.9017 29.3014C67.6853 30.041 67.5093 30.7024 67.3735 31.2856C67.2399 31.8709 67.1508 32.3146 67.1105 32.621C67.0702 32.9274 67.0532 33.1851 67.0596 33.3964C67.0659 33.6056 67.0787 33.7388 67.0935 33.7937C67.1084 33.8486 67.1275 33.8846 67.1487 33.9015C67.172 33.9268 67.2081 33.9268 67.2611 33.9015C67.4711 33.8254 67.732 33.5613 68.0459 33.107C68.3599 32.6527 68.6568 32.0927 68.9326 31.425C69.2083 30.7573 69.3844 30.1255 69.4607 29.5275C69.4671 29.4684 69.4926 29.4198 69.5329 29.3817C69.5732 29.3437 69.6198 29.3205 69.6729 29.312C69.7916 29.312 69.8638 29.3796 69.8871 29.5127C70.0059 30.2185 70.288 30.6348 70.7292 30.7615C70.9753 30.8376 71.2425 30.808 71.531 30.6728C71.8195 30.5397 72.0761 30.3199 72.2989 30.0178C72.3434 29.967 72.3943 29.9396 72.4495 29.9354L72.4558 29.9375Z" fill="white"/>
<path d="M76.8064 29.8868C76.8658 29.8741 76.9209 29.8868 76.9697 29.9248C77.0185 29.9629 77.0461 30.0157 77.0545 30.0833C77.063 30.1509 77.0503 30.2101 77.0206 30.2587C76.1743 31.5856 75.4043 32.528 74.7085 33.0817C74.4328 33.2993 74.1591 33.4092 73.8898 33.4092C73.6798 33.4092 73.4973 33.3458 73.3404 33.219C73.2513 33.1429 73.1707 33.0436 73.0986 32.9168C73.0264 32.7901 72.9649 32.6147 72.914 32.3886C72.861 32.1625 72.8525 31.8625 72.8864 31.4948C72.9204 31.125 73.0031 30.7045 73.1389 30.2333V30.2206C73.3489 29.4557 73.6034 28.8514 73.9025 28.4056C74.2016 27.9597 74.471 27.7336 74.7107 27.7252C74.8825 27.7167 74.9949 27.8013 75.0479 27.9766C75.1306 28.2196 75.0331 28.5641 74.7552 29.0099C74.4773 29.4557 74.0701 29.9333 73.5313 30.4467C73.4422 30.7743 73.3786 31.0764 73.3404 31.3553C73.3022 31.6321 73.2895 31.854 73.3001 32.0167C73.3107 32.1815 73.3383 32.3231 73.3786 32.4456C73.4189 32.5682 73.457 32.6527 73.491 32.7034C73.5249 32.7541 73.5589 32.7964 73.597 32.8302C73.8219 33.014 74.1104 32.9633 74.4625 32.6781C75.12 32.1562 75.854 31.2581 76.6621 29.9798C76.7003 29.9291 76.7491 29.8974 76.8085 29.8847L76.8064 29.8868ZM74.6279 28.2534C74.367 28.4394 74.1082 28.8387 73.8537 29.4515C74.2885 28.9634 74.5452 28.564 74.6279 28.2534Z" fill="white"/>
<path d="M91.7098 27.7125C91.7183 27.7632 91.7183 27.8076 91.7098 27.8456C91.7013 27.8837 91.6864 27.9196 91.6652 27.9534C91.6419 27.9872 91.6122 28.0126 91.5761 28.0295C91.0755 28.207 90.1422 28.526 88.7804 28.9867C88.6765 29.6332 88.5259 30.5334 88.3307 31.6829C88.1738 32.583 88.0592 33.2507 87.9892 33.6881C87.9171 34.1255 87.8386 34.5903 87.7538 35.0869C87.6668 35.5835 87.6032 35.9406 87.5565 36.1582C87.5353 36.285 87.4632 36.3463 87.3423 36.3463H87.2977C87.2447 36.3294 87.2023 36.2934 87.1683 36.2385C87.1344 36.1836 87.1259 36.1223 87.1408 36.0547C87.2235 35.5835 87.478 34.0959 87.9044 31.592C88.0847 30.4996 88.2226 29.6797 88.3201 29.1346C88.3117 29.1346 88.3074 29.1367 88.3032 29.1409C88.2989 29.1451 88.2926 29.1472 88.2862 29.1472C86.235 29.8445 84.6823 30.3791 83.6281 30.7489C82.7605 35.4799 82.2557 38.4593 82.1136 39.6848C82.1581 39.7102 82.1942 39.7524 82.2196 39.8116C82.2451 39.8708 82.2472 39.9299 82.226 39.9891C82.1878 40.1053 82.1581 40.194 82.1369 40.2532C82.1136 40.3124 82.0796 40.3694 82.0351 40.4222C81.9906 40.4751 81.9418 40.5046 81.8887 40.5046C81.8654 40.5046 81.84 40.5004 81.8103 40.492C81.7063 40.4666 81.6469 40.3779 81.6363 40.2278C81.6257 40.0757 81.6427 39.8665 81.6872 39.5982C81.7318 39.2115 81.8103 38.6621 81.9227 37.9479C82.1242 36.7118 82.4233 34.9897 82.8199 32.7795C82.9239 32.1921 83.0363 31.5688 83.1572 30.9137C82.506 31.1483 81.9227 31.3638 81.4051 31.5561C79.3624 32.3125 78.1215 32.8535 77.6782 33.181C77.7525 33.2401 77.7821 33.3204 77.7673 33.4198C77.744 33.555 77.674 33.6226 77.5531 33.6226C77.5382 33.6226 77.5234 33.6184 77.5085 33.6099C77.2688 33.5592 77.1416 33.4367 77.1267 33.2444C77.1267 33.1091 77.2052 32.9739 77.3622 32.8344C77.5191 32.695 77.8373 32.5133 78.3167 32.2872C78.9446 31.9935 79.8461 31.6237 81.0212 31.1779C81.6639 30.9433 82.4042 30.6728 83.2442 30.3707C83.626 28.2957 84.0672 25.9207 84.5678 23.2499L84.6251 22.9984C84.6844 22.6793 84.7141 22.4173 84.7141 22.2103C84.7141 22.0032 84.7057 21.8827 84.6929 21.8447C84.6781 21.8067 84.6632 21.7834 84.6484 21.775C84.6335 21.7665 84.6102 21.7665 84.5763 21.775C84.5423 21.7834 84.4808 21.8172 84.3917 21.8764C84.3026 21.9356 84.2051 22.0159 84.099 22.1152C83.836 22.3666 83.5623 22.7068 83.2739 23.1357C82.9854 23.5647 82.7287 24.0105 82.506 24.4712C82.349 24.8071 82.2218 25.122 82.1242 25.4157C82.0266 25.7094 81.9651 25.9672 81.9397 26.1912C81.9142 26.413 81.9269 26.5969 81.98 26.7405C82.0627 26.9666 82.2748 27.0681 82.6205 27.0427C82.6799 27.0342 82.733 27.0533 82.7775 27.0997C82.8221 27.1462 82.8475 27.2033 82.8496 27.2688C82.8539 27.3364 82.8369 27.3956 82.7987 27.4442C82.7605 27.4949 82.7118 27.5202 82.6524 27.5202C82.0987 27.5625 81.7403 27.3596 81.5748 26.9159C81.4624 26.6222 81.4645 26.225 81.5812 25.7242C81.6978 25.2255 81.8803 24.7268 82.1306 24.2303C82.3809 23.7337 82.6587 23.2625 82.9621 22.8125C83.2654 22.3624 83.5475 22.0074 83.8084 21.7475C84.2581 21.3101 84.6102 21.1812 84.8626 21.3566C85.1702 21.5573 85.2296 22.1342 85.0429 23.0829L84.9984 23.347C84.519 25.9101 84.0926 28.1943 83.7193 30.2038C84.7375 29.8509 86.2181 29.3416 88.1632 28.6782C88.1865 28.6697 88.212 28.6613 88.2417 28.6528C88.2714 28.6444 88.301 28.6338 88.3307 28.6211C88.3604 28.6084 88.3859 28.6021 88.4092 28.6021C89.1729 24.1077 89.6777 21.3165 89.9237 20.2325C89.9386 20.1649 89.9725 20.1142 90.0256 20.0803C90.0786 20.0465 90.1316 20.0381 90.1889 20.055C90.2462 20.0719 90.2886 20.1099 90.3183 20.1691C90.348 20.2283 90.3565 20.2874 90.3395 20.3445C90.0998 21.4031 89.6098 24.1014 88.8695 28.4373C90.0956 28.0252 90.9525 27.7315 91.4404 27.554C91.4934 27.5371 91.5464 27.5435 91.6037 27.5731C91.6589 27.6026 91.6949 27.647 91.7098 27.7062V27.7125Z" fill="white"/>
<path d="M96.4358 29.9882C96.4952 29.9755 96.5503 29.9882 96.5991 30.0199C96.6479 30.0537 96.6797 30.1044 96.6946 30.1721C96.7094 30.2397 96.703 30.2988 96.6712 30.3474C96.5821 30.508 96.4846 30.6771 96.3785 30.8588C96.2746 31.0405 96.1176 31.2856 95.9119 31.5962C95.7061 31.9068 95.5088 32.1773 95.3222 32.4097C95.1355 32.6422 94.934 32.845 94.7155 33.0204C94.497 33.1958 94.3125 33.2845 94.1555 33.2845C94.0961 33.2845 94.0431 33.2718 93.9986 33.2465C93.6401 33.0943 93.5383 32.452 93.6952 31.3173C93.4492 31.6955 93.2243 31.9808 93.0228 32.1752C92.7301 32.452 92.4756 32.4858 92.2592 32.2766C92.0577 32.0928 91.9665 31.7653 91.9834 31.2941C92.0025 30.8229 92.1234 30.3707 92.3483 29.9333C92.378 29.8741 92.4225 29.8361 92.4819 29.8192C92.5413 29.8023 92.5986 29.8107 92.6495 29.8445C92.7025 29.8783 92.7343 29.9269 92.7513 29.9903C92.7683 30.0537 92.7598 30.115 92.7301 30.1742C92.6028 30.4087 92.5137 30.658 92.4671 30.9179C92.4183 31.1778 92.4034 31.3955 92.4225 31.5666C92.4416 31.7399 92.4777 31.8498 92.5286 31.9005C92.5668 31.9428 92.6368 31.9132 92.7428 31.8117C92.938 31.6279 93.1798 31.2941 93.4725 30.8165C93.5255 30.7405 93.5637 30.6834 93.5892 30.6475C93.6146 30.6116 93.6464 30.563 93.6846 30.508C93.7228 30.4531 93.7525 30.4172 93.7737 30.4003C93.7949 30.3834 93.8225 30.3643 93.8522 30.3432C93.8819 30.3221 93.9116 30.3136 93.9413 30.3179C93.971 30.3221 94.0049 30.3326 94.0431 30.3495C94.1407 30.3918 94.1937 30.4869 94.2001 30.6327C94.2085 30.7806 94.1895 30.9708 94.1449 31.2074C94.0622 31.6702 94.0304 32.023 94.0495 32.266C94.0686 32.509 94.0855 32.6591 94.1004 32.714C94.1152 32.7689 94.1343 32.7964 94.1555 32.7964C94.1767 32.8133 94.217 32.807 94.2722 32.7774C94.3273 32.7478 94.3952 32.6992 94.4737 32.6316C94.5522 32.564 94.6391 32.4795 94.7367 32.3738C94.8343 32.2682 94.9446 32.1414 95.0676 31.9892C95.1906 31.8371 95.3158 31.6723 95.4431 31.4906C95.5703 31.311 95.7082 31.0997 95.8588 30.8609C96.0094 30.6221 96.1537 30.3665 96.2958 30.0981C96.3255 30.0389 96.37 30.003 96.4294 29.9903L96.4358 29.9882Z" fill="white"/>
<path d="M101.615 29.8868C101.671 29.8741 101.726 29.8868 101.779 29.9185C101.832 29.9523 101.864 30.003 101.881 30.0706C101.895 30.1382 101.885 30.1974 101.847 30.246C101.548 30.7933 101.191 31.2941 100.78 31.7526C100.368 32.2111 99.9461 32.5936 99.5113 32.8999C99.0764 33.2063 98.6861 33.4536 98.3383 33.6437C97.9904 33.8339 97.6404 33.9945 97.2883 34.1297C97.1843 34.172 97.1016 34.1382 97.0422 34.0283C96.9234 34.3642 96.8174 34.696 96.7283 35.0235C96.6986 35.1334 96.6265 35.1862 96.514 35.1862H96.4801C96.4271 35.1778 96.3847 35.1503 96.3507 35.1038C96.3168 35.0573 96.2998 35.0045 96.2998 34.9453C96.3083 34.753 96.4886 33.7515 96.8428 31.9449C97.1992 30.1382 97.5555 28.3739 97.914 26.6518C97.914 26.6264 97.9183 26.6011 97.9246 26.5757C98.0519 25.9714 98.1558 25.4833 98.2386 25.1135C98.4931 23.9535 98.7858 22.9646 99.1188 22.1448C99.4519 21.3249 99.7382 20.8917 99.9779 20.841C100.105 20.8157 100.203 20.8579 100.271 20.9678C100.434 21.2108 100.343 21.8595 99.9907 22.9097C99.6385 23.9598 99.0892 25.2403 98.3404 26.7532C97.9374 28.6613 97.5555 30.5461 97.1949 32.4118C97.4049 31.9237 97.6065 31.5286 97.8016 31.2264C98.3849 30.3115 98.8495 29.9122 99.1931 30.0284C99.4179 30.1044 99.5325 30.3263 99.541 30.6961C99.541 30.8736 99.5176 31.0722 99.4688 31.2941C99.4201 31.5159 99.3394 31.7631 99.227 32.0315C99.1146 32.2999 98.981 32.5576 98.8219 32.8006C99.9885 32.0273 100.875 31.0912 101.482 29.9903C101.512 29.9312 101.554 29.8952 101.611 29.8826L101.615 29.8868ZM97.1652 33.6627C97.4346 33.5529 97.6871 33.3923 97.9225 33.1767C98.158 32.9612 98.3531 32.7288 98.5058 32.4773C98.6586 32.2259 98.7816 31.9787 98.877 31.7399C98.9704 31.5011 99.0361 31.275 99.0743 31.0659C99.1273 30.7721 99.1273 30.5841 99.0743 30.4996C99.0446 30.4996 99.0043 30.5144 98.9555 30.5439C98.9067 30.5735 98.807 30.6707 98.6586 30.8334C98.508 30.9961 98.3446 31.2222 98.1643 31.5075C97.8419 32.0125 97.5089 32.7309 97.1652 33.6627ZM99.9037 21.5383C99.4985 22.2102 99.1188 23.3069 98.7582 24.8283C99.4094 23.3492 99.7913 22.2525 99.9037 21.5383Z" fill="white"/>
<path d="M37.0918 18.2167V8.00458H46.8174V10.3521H39.9511V11.6136H46.2298V13.9611H39.9511V15.8671H46.8174V18.2167H37.0918Z" fill="white"/>
<path d="M46.624 8.19475V10.1598H39.7599V11.8038H46.0365V13.7689H39.7599V16.0572H46.624V18.0223H37.2845V8.19264H46.624M47.0101 7.80807H36.8984V18.4048H47.0101V15.6727H40.146V14.1513H46.4225V11.4192H40.146V10.5423H47.0101V7.81018V7.80807Z" fill="white"/>
<path d="M55.8107 18.2167L50.5417 11.7678V18.2167H47.6824V8.00458H51.0296L56.2837 14.4514V8.00458H59.1579V18.2167H55.8107Z" fill="white"/>
<path d="M58.9652 8.19475V18.0244H55.9022L50.3511 11.229V18.0244H47.8757V8.19475H50.9387L56.4792 14.9902V8.19475H58.9673M59.3534 7.81018H56.0953V13.9083L51.2399 7.95175L51.1253 7.81018H47.4939V18.4069H50.7393V12.3067L55.6074 18.2653L55.7219 18.4069H59.3534V7.81018Z" fill="white"/>
<path d="M65.755 18.54C65.0126 18.54 64.2808 18.4238 63.5808 18.1935C62.8766 17.961 62.2423 17.6145 61.6972 17.1623C61.1499 16.708 60.7023 16.1354 60.3714 15.4635C60.0384 14.7894 59.8708 13.997 59.8708 13.1096C59.8708 12.2221 60.0384 11.4319 60.3714 10.7578C60.7023 10.0859 61.1478 9.51536 61.6972 9.05895C62.2444 8.60465 62.8766 8.25812 63.5808 8.0278C64.2808 7.79749 65.0126 7.68127 65.755 7.68127C66.368 7.68127 66.9747 7.75945 67.5601 7.91159C68.1455 8.06373 68.6949 8.3025 69.1955 8.61523C69.6961 8.93006 70.1373 9.32519 70.5064 9.78794C70.8776 10.2549 71.1597 10.8001 71.34 11.4107L71.4143 11.6558H68.5486L68.4955 11.5502C68.3895 11.3389 68.2431 11.1466 68.0628 10.9818C67.8762 10.8127 67.6619 10.667 67.4201 10.5486C67.1762 10.4303 66.911 10.3373 66.631 10.276C66.351 10.2127 66.0562 10.1831 65.7529 10.1831C65.3159 10.1831 64.9065 10.2422 64.5353 10.3563C64.1705 10.4683 63.8523 10.6437 63.585 10.8783C63.322 11.1107 63.1099 11.4128 62.9593 11.7763C62.8066 12.1439 62.7302 12.5919 62.7302 13.1075C62.7302 13.623 62.8066 14.071 62.9593 14.4387C63.1099 14.8021 63.3199 15.1064 63.5829 15.3367C63.8502 15.5712 64.1683 15.7466 64.5332 15.8586C64.9023 15.9748 65.3117 16.0319 65.7507 16.0319C66.0519 16.0319 66.3468 16.0002 66.6289 15.9389C66.9068 15.8776 67.1719 15.7868 67.418 15.6663C67.6598 15.548 67.8762 15.4022 68.0607 15.2331C68.2431 15.0662 68.3874 14.8761 68.4934 14.6648L68.5464 14.5591H71.4122L71.34 14.8042C71.1576 15.4149 70.8776 15.9621 70.5064 16.427C70.1352 16.8919 69.694 17.2849 69.1934 17.5934C68.6971 17.9019 68.1477 18.1385 67.5601 18.297C66.9747 18.4555 66.368 18.5358 65.7529 18.5358L65.755 18.54Z" fill="white"/>
<path d="M65.7552 7.87144C66.3555 7.87144 66.941 7.9475 67.5115 8.09541C68.0821 8.24544 68.6103 8.47153 69.0939 8.7758C69.5776 9.08007 69.9976 9.45619 70.3582 9.90626C70.7166 10.3563 70.9839 10.8761 71.1578 11.4657H68.6697C68.553 11.2311 68.394 11.024 68.1946 10.8402C67.9952 10.6585 67.7661 10.5021 67.5073 10.3775C67.2485 10.2507 66.9706 10.1556 66.6758 10.0901C66.3788 10.0246 66.0734 9.99078 65.7573 9.99078C65.2992 9.99078 64.8728 10.0521 64.4825 10.1725C64.0901 10.2951 63.7507 10.481 63.4622 10.7346C63.1759 10.9881 62.9489 11.3093 62.7877 11.7044C62.6244 12.0974 62.5438 12.5665 62.5438 13.1075C62.5438 13.6484 62.6244 14.1196 62.7877 14.5126C62.951 14.9056 63.1759 15.2289 63.4622 15.4825C63.7507 15.736 64.0901 15.922 64.4825 16.0445C64.8749 16.1671 65.2992 16.2263 65.7573 16.2263C66.0734 16.2263 66.381 16.1946 66.6758 16.1269C66.9706 16.0614 67.2485 15.9664 67.5073 15.8396C67.7661 15.7128 67.9952 15.5585 68.1946 15.3768C68.394 15.1951 68.553 14.9859 68.6697 14.7514H71.1578C70.9818 15.3409 70.7166 15.8607 70.3582 16.3108C69.9997 16.7608 69.5776 17.1348 69.0939 17.4349C68.6103 17.7349 68.0821 17.961 67.5115 18.1153C66.941 18.2695 66.3555 18.3477 65.7552 18.3477C65.0298 18.3477 64.3255 18.2357 63.6425 18.0117C62.9595 17.7878 62.3529 17.4539 61.8226 17.0144C61.2923 16.5749 60.868 16.0297 60.5477 15.3789C60.2274 14.7281 60.0662 13.9717 60.0662 13.1117C60.0662 12.2517 60.2274 11.4952 60.5477 10.8444C60.868 10.1936 61.2944 9.64848 61.8226 9.20897C62.3529 8.76947 62.9574 8.43772 63.6425 8.21163C64.3255 7.98765 65.0298 7.87355 65.7552 7.87355M65.7552 7.48898C64.9937 7.48898 64.2407 7.60942 63.5216 7.84608C62.7962 8.08485 62.1407 8.44406 61.5765 8.91315C61.008 9.38646 60.5456 9.97811 60.202 10.6754C59.8562 11.3769 59.6802 12.1968 59.6802 13.1117C59.6802 14.0266 59.8562 14.8486 60.202 15.548C60.5456 16.2432 61.008 16.8369 61.5765 17.3081C62.1407 17.7772 62.7941 18.1364 63.5216 18.3752C64.2407 18.6118 64.9916 18.7323 65.7552 18.7323C66.3873 18.7323 67.0131 18.6499 67.6134 18.4872C68.2179 18.3245 68.7842 18.0794 69.2976 17.7624C69.8173 17.4412 70.2733 17.0334 70.6594 16.5517C71.0475 16.0657 71.3381 15.4973 71.5269 14.8634L71.6733 14.371H68.4321L68.3261 14.5845C68.2306 14.7767 68.0991 14.9479 67.9358 15.0979C67.764 15.2543 67.5625 15.3895 67.3376 15.4994C67.1064 15.6114 66.8561 15.698 66.5931 15.7572C66.3258 15.8163 66.0458 15.8459 65.7573 15.8459C65.3395 15.8459 64.9492 15.791 64.5971 15.6811C64.2598 15.5754 63.9628 15.4128 63.7168 15.1972C63.475 14.9859 63.2819 14.707 63.1419 14.3689C62.9998 14.0245 62.9277 13.5998 62.9277 13.1117C62.9277 12.6236 62.9998 12.1989 63.1419 11.8545C63.2819 11.5185 63.475 11.2396 63.7168 11.0261C63.9628 10.8106 64.2577 10.6479 64.5949 10.5444C64.947 10.4345 65.3373 10.3796 65.7552 10.3796C66.0437 10.3796 66.3237 10.4092 66.591 10.4683C66.8561 10.5275 67.1064 10.6141 67.3376 10.7261C67.5625 10.836 67.7618 10.9712 67.9337 11.1276C68.097 11.2776 68.2285 11.4488 68.324 11.641L68.43 11.8545H71.6712L71.5248 11.3621C71.336 10.7282 71.0454 10.1598 70.6572 9.67383C70.2733 9.19206 69.8173 8.78426 69.2976 8.45674C68.7821 8.13345 68.2137 7.88834 67.6091 7.72987C67.0067 7.57139 66.3831 7.49321 65.7552 7.49321V7.48898Z" fill="white"/>
<path d="M80.0306 18.2167V14.2844H74.8634V18.2167H72.002V8.00458H74.8634V11.9348H80.0306V8.00458H82.8899V18.2167H80.0306Z" fill="white"/>
<path d="M82.6969 8.19475V18.0244H80.2215V14.0921H74.6704V18.0244H72.195V8.19475H74.6704V12.1271H80.2215V8.19475H82.6969ZM83.0829 7.81018H79.8376V11.7425H75.0564V7.81018H71.811V18.4069H75.0564V14.4746H79.8376V18.4069H83.0829V7.81018Z" fill="white"/>
<path d="M84.0056 18.2167V8.00458H93.7312V10.3521H86.8671V11.6136H93.1436V13.9611H86.8671V15.8671H93.7312V18.2167H84.0056Z" fill="white"/>
<path d="M93.5404 8.19475V10.1598H86.6762V11.8038H92.9528V13.7689H86.6762V16.0572H93.5404V18.0223H84.2008V8.19264H93.5404M93.9264 7.80807H83.8169V18.4048H93.9264V15.6727H87.0623V14.1513H93.3388V11.4192H87.0623V10.5423H93.9264V7.81018V7.80807Z" fill="white"/>
<path d="M102.725 18.2167L97.4579 11.7678V18.2167H94.5964V8.00458H97.9436L103.2 14.4514V8.00458H106.072V18.2167H102.725Z" fill="white"/>
<path d="M105.881 8.19475V18.0244H102.818L97.2671 11.229V18.0244H94.7917V8.19475H97.8547L103.395 14.9902V8.19475H105.883M106.269 7.81018H103.011V13.9083L98.1559 7.95175L98.0414 7.81018H94.4099V18.4069H97.6553V12.3067L102.523 18.2653L102.638 18.4069H106.269V7.81018Z" fill="white"/>
</svg>
